HIERARCHY
ROOT Hips
{
	OFFSET 0.000000 0.000000 0.000000
	CHANNELS 6 Xposition Yposition Zposition Zrotation Yrotation Xrotation 
	JOINT LHipJoint
	{
		OFFSET 0.000000 0.000000 0.000000
		CHANNELS 3 Zrotation Yrotation Xrotation
		JOINT LeftUpLeg
		{
			OFFSET 1.363060 -1.794630 0.839290
			CHANNELS 3 Zrotation Yrotation Xrotation
			JOINT LeftLeg
			{
				OFFSET 2.448110 -6.726130 0.000000
				CHANNELS 3 Zrotation Yrotation Xrotation
				JOINT LeftFoot
				{
					OFFSET 2.562200 -7.039590 0.000000
					CHANNELS 3 Zrotation Yrotation Xrotation
					JOINT LeftToeBase
					{
						OFFSET 0.157640 -0.433110 2.322550
						CHANNELS 3 Zrotation Yrotation Xrotation
						End Site
						{
							OFFSET 0.000000 0.000000 0.000000
						}
					}
				}
			}
		}
	}
	JOINT RHipJoint
	{
		OFFSET 0.000000 0.000000 0.000000
		CHANNELS 3 Zrotation Yrotation Xrotation
		JOINT RightUpLeg
		{
			OFFSET -1.305520 -1.794630 0.839290
			CHANNELS 3 Zrotation Yrotation Xrotation
			JOINT RightLeg
			{
				OFFSET -2.542530 -6.985550 0.000000
				CHANNELS 3 Zrotation Yrotation Xrotation
				JOINT RightFoot
				{
					OFFSET -2.568260 -7.056230 0.000000
					CHANNELS 3 Zrotation Yrotation Xrotation
					JOINT RightToeBase
					{
						OFFSET -0.164730 -0.452590 2.363150
						CHANNELS 3 Zrotation Yrotation Xrotation
						End Site
						{
							OFFSET 0.000000 0.000000 0.000000
						}
					}
				}
			}
		}
	}
	JOINT LowerBack
	{
		OFFSET 0.000000 0.000000 0.000000
		CHANNELS 3 Zrotation Yrotation Xrotation
		JOINT Spine
		{
			OFFSET 0.028270 2.035590 -0.193380
			CHANNELS 3 Zrotation Yrotation Xrotation
			JOINT Spine1
			{
				OFFSET 0.056720 2.048850 -0.042750
				CHANNELS 3 Zrotation Yrotation Xrotation
				JOINT Neck
				{
					OFFSET 0.000000 0.000000 0.000000
					CHANNELS 3 Zrotation Yrotation Xrotation
					JOINT Neck1
					{
						OFFSET -0.054170 1.746240 0.172020
						CHANNELS 3 Zrotation Yrotation Xrotation
						JOINT Head
						{
							OFFSET 0.104070 1.761360 -0.123970
							CHANNELS 3 Zrotation Yrotation Xrotation
							End Site
							{
								OFFSET 0.000000 0.000000 0.000000
							}
						}
					}
				}
				JOINT LeftShoulder
				{
					OFFSET 0.000000 0.000000 0.000000
					CHANNELS 3 Zrotation Yrotation Xrotation
					JOINT LeftArm
					{
						OFFSET 3.362410 1.200890 -0.311210
						CHANNELS 3 Zrotation Yrotation Xrotation
						JOINT LeftForeArm
						{
							OFFSET 4.983000 -0.000000 -0.000000
							CHANNELS 3 Zrotation Yrotation Xrotation
							JOINT LeftHand
							{
								OFFSET 3.483560 -0.000000 -0.000000
								CHANNELS 3 Zrotation Yrotation Xrotation
								JOINT LeftFingerBase
								{
									OFFSET 0.000000 0.000000 0.000000
									CHANNELS 3 Zrotation Yrotation Xrotation
									JOINT LeftHandIndex1
									{
										OFFSET 0.715260 -0.000000 -0.000000
										CHANNELS 3 Zrotation Yrotation Xrotation
										End Site
										{
											OFFSET 0.000000 0.000000 0.000000
										}
									}
								}
								JOINT LThumb
								{
									OFFSET 0.000000 0.000000 0.000000
									CHANNELS 3 Zrotation Yrotation Xrotation
									End Site
									{
										OFFSET 0.000000 0.000000 0.000000
									}
								}
							}
						}
					}
				}
				JOINT RightShoulder
				{
					OFFSET 0.000000 0.000000 0.000000
					CHANNELS 3 Zrotation Yrotation Xrotation
					JOINT RightArm
					{
						OFFSET -3.136600 1.374050 -0.404650
						CHANNELS 3 Zrotation Yrotation Xrotation
						JOINT RightForeArm
						{
							OFFSET -5.241900 -0.000000 -0.000000
							CHANNELS 3 Zrotation Yrotation Xrotation
							JOINT RightHand
							{
								OFFSET -3.444170 -0.000000 -0.000000
								CHANNELS 3 Zrotation Yrotation Xrotation
								JOINT RightFingerBase
								{
									OFFSET 0.000000 0.000000 0.000000
									CHANNELS 3 Zrotation Yrotation Xrotation
									JOINT RightHandIndex1
									{
										OFFSET -0.622530 -0.000000 -0.000000
										CHANNELS 3 Zrotation Yrotation Xrotation
										End Site
										{
											OFFSET 0.000000 0.000000 0.000000
										}
									}
								}
								JOINT RThumb
								{
									OFFSET 0.000000 0.000000 0.000000
									CHANNELS 3 Zrotation Yrotation Xrotation
									End Site
									{
										OFFSET 0.000000 0.000000 0.000000
									}
								}
							}
						}
					}
				}
			}
		}
	}
}
MOTION
Frames: 4
Frame Time: 0.008333
1.481455 17.384774 1.128912 174.056241 -87.466978 -163.810780 -11.257100 2.170037 1.318202 -4.834117 13.535679 -10.192009 -2.073764 -1.387827 -3.717368 0.999968 9.511282 4.100241 2.145800 0.000000 -39.700400 9.679577 -2.476263 2.664220 3.341821 -2.961060 -11.094537 2.044410 0.849908 0.886103 -0.868251 -5.918733 3.925626 -1.881000 0.000000 -64.877600 -2.468469 -0.008465 -5.334687 -1.151954 0.103241 -4.791818 -5.628067 0.176470 -5.502016 6.002613 0.058152 5.552191 -2.464605 -0.354392 3.636043 0.000000 0.000000 0.000000 10.329705 3.526315 -4.253057 -75.371329 -47.787249 7.143547 177.730825 -61.663706 179.780729 11.278694 -7.807162 -0.889880 -0.026458 1.161090 -0.000000 0.000000 0.000000 0.000000 0.000000 0.000000 0.000000 -1.059845 1.212760 -6.605981 86.267984 50.799228 11.464738 -175.672766 62.828888 179.634272 -20.675913 16.784421 -3.330380 0.112913 -1.188950 -0.000000 0.000000 0.000000 0.000000 0.000000 0.000000 0.000000 
1.474535 17.385519 1.107889 173.507085 -87.922336 -163.106581 -11.250397 2.153618 1.364285 -4.762442 13.426931 -10.405491 -2.087369 -1.396926 -3.828869 0.964901 9.296160 4.308881 2.139600 -0.000000 -39.970300 9.670609 -2.480174 2.675702 3.510116 -2.968676 -11.277775 2.036368 0.849460 1.116203 -0.934873 -6.233966 3.657610 -1.927300 0.000001 -64.370000 -2.596614 -0.063466 -5.380939 -1.163549 0.060290 -4.784163 -5.606006 0.131862 -5.434658 6.029881 -0.086928 5.438274 -2.441004 -0.351553 3.604800 0.000000 0.000000 0.000000 10.223180 3.645333 -4.215735 -75.519436 -47.335772 7.196174 177.771333 -61.820307 179.781522 11.299057 -7.763009 -0.886852 -0.029350 1.156986 -0.000000 0.000000 0.000000 0.000000 0.000000 0.000000 0.000000 -1.221373 1.071843 -6.604092 86.148161 50.765448 11.288170 -175.672760 62.747971 179.633662 -20.789834 16.703671 -3.334239 0.118140 -1.188214 -0.000000 0.000000 0.000000 0.000000 0.000000 0.000000 0.000000 
1.467552 17.386334 1.085540 172.815649 -88.366669 -162.226035 -11.239705 2.130661 1.406976 -4.696354 13.332401 -10.684079 -2.103347 -1.406116 -3.879872 0.930884 9.076965 4.483925 2.125700 -0.000000 -40.242400 9.662096 -2.483649 2.700693 3.681201 -2.921736 -11.548535 2.026411 0.841513 1.437794 -1.004897 -6.548743 3.365308 -1.968400 -0.000001 -63.821100 -2.740717 -0.123694 -5.436021 -1.176276 0.013469 -4.776583 -5.579886 0.082985 -5.360429 6.064596 -0.240399 5.307424 -2.410256 -0.348107 3.568834 0.000000 0.000000 0.000000 10.116721 3.797796 -4.172740 -75.676989 -46.838149 7.261190 177.807156 -61.989261 179.781511 11.380649 -7.703439 -0.887127 -0.034076 1.152029 -0.000000 0.000000 0.000000 0.000000 0.000000 0.000000 0.000000 -1.417835 0.924471 -6.604802 86.032353 50.716423 11.090513 -175.669396 62.639080 179.632885 -20.915136 16.620595 -3.339493 0.123964 -1.187846 -0.000000 0.000000 0.000000 0.000000 0.000000 0.000000 0.000000 
1.461215 17.387189 1.061695 171.815126 -88.803255 -161.010105 -11.220781 2.098283 1.443611 -4.634341 13.242110 -11.031573 -2.120529 -1.414066 -3.838677 0.899069 8.859741 4.611197 2.103700 -0.000000 -40.521600 9.658289 -2.486638 2.734842 3.851645 -2.834168 -11.906940 2.014878 0.823275 1.857157 -1.075903 -6.846871 3.053534 -2.000300 -0.000000 -63.248200 -2.899290 -0.188920 -5.491545 -1.190843 -0.037061 -4.767970 -5.554053 0.030243 -5.282002 6.102765 -0.402166 5.160904 -2.373089 -0.344098 3.528332 0.000000 0.000000 0.000000 9.983034 3.961563 -4.116604 -75.778760 -46.310151 7.314929 177.845713 -62.158149 179.781087 11.499067 -7.640330 -0.889804 -0.040449 1.146638 -0.000000 0.000000 0.000000 0.000000 0.000000 0.000000 0.000000 -1.648377 0.771805 -6.605012 85.919905 50.652430 10.868620 -175.662372 62.501571 179.631918 -21.047608 16.541126 -3.346637 0.130170 -1.188002 -0.000000 0.000000 0.000000 0.000000 0.000000 0.000000 0.000000 
